<svg xmlns="http://www.w3.org/2000/svg" viewBox="0 0 120 120" width="100%" height="100%">
  <defs>
    <!-- Top Face: Active Browser Window -->
    <linearGradient id="c2Top" x1="0%" y1="100%" x2="100%" y2="0%">
      <stop offset="0%" stop-color="#38bdf8" />
      <stop offset="50%" stop-color="#0284c7" />
      <stop offset="100%" stop-color="#0369a1" />
    </linearGradient>

    <!-- Left Face: Docker & Kernel Isolation -->
    <linearGradient id="c2Left" x1="0%" y1="0%" x2="100%" y2="100%">
      <stop offset="0%" stop-color="#1e40af" />
      <stop offset="100%" stop-color="#0f172a" />
    </linearGradient>

    <!-- Right Face: Fingerprint Spoofing & Network Tunnel -->
    <linearGradient id="c2Right" x1="0%" y1="0%" x2="100%" y2="100%">
      <stop offset="0%" stop-color="#2563eb" />
      <stop offset="100%" stop-color="#1e3a8a" />
    </linearGradient>

    <linearGradient id="c2Glow" x1="0%" y1="0%" x2="100%" y2="100%">
      <stop offset="0%" stop-color="#ffffff" />
      <stop offset="100%" stop-color="#38bdf8" />
    </linearGradient>

    <filter id="c2Shadow" x="-20%" y="-20%" width="140%" height="140%">
      <feDropShadow dx="0" dy="8" stdDeviation="8" flood-color="#0f172a" flood-opacity="0.38" />
    </filter>
  </defs>

  <g filter="url(#c2Shadow)" transform="translate(60, 60)">
    <!-- Base Isometric Cube -->
    <!-- Left Face (Docker Isolation) -->
    <path d="M 0,0 L -46,-24 L -46,26 L 0,50 Z" fill="url(#c2Left)" />
    <!-- Right Face (Proxy & Network) -->
    <path d="M 0,0 L 46,-24 L 46,26 L 0,50 Z" fill="url(#c2Right)" />
    <!-- Top Face (Chromium Viewport) -->
    <path d="M 0,0 L 46,-24 L 0,-48 L -46,-24 Z" fill="url(#c2Top)" />

    <!-- Precision Chamfer / Border Inset on Top Face -->
    <path d="M 0,-4 L 40,-24 L 0,-44 L -40,-24 Z" fill="none" stroke="#ffffff" stroke-width="1.2" stroke-opacity="0.4" />

    <!-- 3 Browser Control Dots on Top Face (Red, Amber, Green in 3D perspective) -->
    <!-- Transformed to match isometric top plane -->
    <g transform="translate(-22, -26) skewX(-30) scale(1, 0.58)">
      <circle cx="-8" cy="0" r="3.2" fill="#ef4444" />
      <circle cx="0" cy="0" r="3.2" fill="#f59e0b" />
      <circle cx="8" cy="0" r="3.2" fill="#10b981" />
    </g>

    <!-- Address Bar Slot in Top Face -->
    <path d="M -12,-20 L 24,-20 L 16,-12 L -20,-12 Z" fill="#ffffff" opacity="0.2" />

    <!-- Stepped Containment Cuts on Left Face (Representing the 3 Stacked Layers) -->
    <line x1="-36" y1="-8" x2="0" y2="12" stroke="#60a5fa" stroke-width="1.5" stroke-dasharray="4 3" stroke-opacity="0.6" />
    <line x1="-36" y1="9" x2="0" y2="29" stroke="#60a5fa" stroke-width="1.5" stroke-dasharray="4 3" stroke-opacity="0.6" />

    <!-- Stepped Containment Cuts on Right Face -->
    <line x1="36" y1="-8" x2="0" y2="12" stroke="#93c5fd" stroke-width="1.5" stroke-dasharray="4 3" stroke-opacity="0.6" />
    <line x1="36" y1="9" x2="0" y2="29" stroke="#93c5fd" stroke-width="1.5" stroke-dasharray="4 3" stroke-opacity="0.6" />

    <!-- Floating Identity Shield Glyph on Front Spine -->
    <g transform="translate(0, 20)">
      <!-- Radiant Hexagonal Core Node -->
      <polygon points="0,-12 10,-6 10,6 0,12 -10,6 -10,-6" fill="url(#c2Glow)" />
      <!-- Stylized P cutout in center of node -->
      <path d="M -3,-6 L 1,-6 C 3.2,-6 5,-4.2 5,-2 C 5,0.2 3.2,2 1,2 L -3,2 Z M -1,-4 L -1,0 L 1,0 C 1.6,0 2.5,-0.4 2.5,-2 C 2.5,-3.6 1.6,-4 1,-4 Z" fill="#0f172a" />
      <line x1="-3" y1="2" x2="-3" y2="6" stroke="#0f172a" stroke-width="1.8" stroke-linecap="round" />
    </g>
  </g>
</svg>